<?xml version="1.0" encoding="UTF-8"?>
<!DOCTYPE svg PUBLIC "-//W3C//DTD SVG 1.1//EN" "http://www.w3.org/Graphics/SVG/1.1/DTD/svg11.dtd">
<svg version="1.2" width="115.9mm" height="30mm" viewBox="0 0 11590 3000" preserveAspectRatio="xMidYMid" fill-rule="evenodd" stroke-width="28.222" stroke-linejoin="round" xmlns="http://www.w3.org/2000/svg" xmlns:ooo="http://xml.openoffice.org/svg/export" xmlns:xlink="http://www.w3.org/1999/xlink" xmlns:presentation="http://sun.com/xmlns/staroffice/presentation" xmlns:smil="http://www.w3.org/2001/SMIL20/" xmlns:anim="urn:oasis:names:tc:opendocument:xmlns:animation:1.0" xml:space="preserve">
 <defs class="ClipPathGroup">
  <clipPath id="presentation_clip_path" clipPathUnits="userSpaceOnUse">
   <rect x="0" y="0" width="11590" height="3000"/>
  </clipPath>
  <clipPath id="presentation_clip_path_shrink" clipPathUnits="userSpaceOnUse">
   <rect x="11" y="3" width="11567" height="2994"/>
  </clipPath>
 </defs>
 <defs class="TextShapeIndex">
  <g ooo:slide="id1" ooo:id-list="id3 id4 id5 id6 id7 id8 id9 id10 id11 id12 id13"/>
 </defs>
 <defs class="EmbeddedBulletChars">
  <g id="bullet-char-template-57356" transform="scale(0.00048828125,-0.00048828125)">
   <path d="M 580,1141 L 1163,571 580,0 -4,571 580,1141 Z"/>
  </g>
  <g id="bullet-char-template-57354" transform="scale(0.00048828125,-0.00048828125)">
   <path d="M 8,1128 L 1137,1128 1137,0 8,0 8,1128 Z"/>
  </g>
  <g id="bullet-char-template-10146" transform="scale(0.00048828125,-0.00048828125)">
   <path d="M 174,0 L 602,739 174,1481 1456,739 174,0 Z M 1358,739 L 309,1346 659,739 1358,739 Z"/>
  </g>
  <g id="bullet-char-template-10132" transform="scale(0.00048828125,-0.00048828125)">
   <path d="M 2015,739 L 1276,0 717,0 1260,543 174,543 174,936 1260,936 717,1481 1274,1481 2015,739 Z"/>
  </g>
  <g id="bullet-char-template-10007" transform="scale(0.00048828125,-0.00048828125)">
   <path d="M 0,-2 C -7,14 -16,27 -25,37 L 356,567 C 262,823 215,952 215,954 215,979 228,992 255,992 264,992 276,990 289,987 310,991 331,999 354,1012 L 381,999 492,748 772,1049 836,1024 860,1049 C 881,1039 901,1025 922,1006 886,937 835,863 770,784 769,783 710,716 594,584 L 774,223 C 774,196 753,168 711,139 L 727,119 C 717,90 699,76 672,76 641,76 570,178 457,381 L 164,-76 C 142,-110 111,-127 72,-127 30,-127 9,-110 8,-76 1,-67 -2,-52 -2,-32 -2,-23 -1,-13 0,-2 Z"/>
  </g>
  <g id="bullet-char-template-10004" transform="scale(0.00048828125,-0.00048828125)">
   <path d="M 285,-33 C 182,-33 111,30 74,156 52,228 41,333 41,471 41,549 55,616 82,672 116,743 169,778 240,778 293,778 328,747 346,684 L 369,508 C 377,444 397,411 428,410 L 1163,1116 C 1174,1127 1196,1133 1229,1133 1271,1133 1292,1118 1292,1087 L 1292,965 C 1292,929 1282,901 1262,881 L 442,47 C 390,-6 338,-33 285,-33 Z"/>
  </g>
  <g id="bullet-char-template-9679" transform="scale(0.00048828125,-0.00048828125)">
   <path d="M 813,0 C 632,0 489,54 383,161 276,268 223,411 223,592 223,773 276,916 383,1023 489,1130 632,1184 813,1184 992,1184 1136,1130 1245,1023 1353,916 1407,772 1407,592 1407,412 1353,268 1245,161 1136,54 992,0 813,0 Z"/>
  </g>
  <g id="bullet-char-template-8226" transform="scale(0.00048828125,-0.00048828125)">
   <path d="M 346,457 C 273,457 209,483 155,535 101,586 74,649 74,723 74,796 101,859 155,911 209,963 273,989 346,989 419,989 480,963 531,910 582,859 608,796 608,723 608,648 583,586 532,535 482,483 420,457 346,457 Z"/>
  </g>
  <g id="bullet-char-template-8211" transform="scale(0.00048828125,-0.00048828125)">
   <path d="M -4,459 L 1135,459 1135,606 -4,606 -4,459 Z"/>
  </g>
  <g id="bullet-char-template-61548" transform="scale(0.00048828125,-0.00048828125)">
   <path d="M 173,740 C 173,903 231,1043 346,1159 462,1274 601,1332 765,1332 928,1332 1067,1274 1183,1159 1299,1043 1357,903 1357,740 1357,577 1299,437 1183,322 1067,206 928,148 765,148 601,148 462,206 346,322 231,437 173,577 173,740 Z"/>
  </g>
 </defs>
 <g>
  <g id="id2" class="Master_Slide">
   <g id="bg-id2" class="Background"/>
   <g id="bo-id2" class="BackgroundObjects"/>
  </g>
 </g>
 <g class="SlideGroup">
  <g>
   <g id="container-id1">
    <g id="id1" class="Slide" clip-path="url(#presentation_clip_path)">
     <g class="Page">
      <g class="com.sun.star.drawing.CustomShape">
       <g id="id3">
        <rect class="BoundingBox" stroke="none" fill="none" x="6649" y="1049" width="1608" height="1608"/>
        <path fill="rgb(221,221,221)" fill-opacity="0.839" stroke="rgb(255,255,255)" stroke-opacity="0.839" d="M 8203,1853 C 8203,1984 8168,2114 8102,2228 8037,2342 7942,2437 7828,2502 7714,2568 7584,2603 7453,2603 7321,2603 7191,2568 7077,2502 6963,2437 6868,2342 6803,2228 6737,2114 6702,1984 6702,1853 6702,1721 6737,1591 6803,1477 6868,1363 6963,1268 7077,1203 7191,1137 7321,1102 7453,1102 7584,1102 7714,1137 7828,1203 7942,1268 8037,1363 8102,1477 8168,1591 8203,1721 8203,1852 L 8203,1853 Z"/>
        <path fill="none" stroke="rgb(51,51,51)" stroke-width="106" stroke-linejoin="round" d="M 8203,1853 C 8203,1984 8168,2114 8102,2228 8037,2342 7942,2437 7828,2502 7714,2568 7584,2603 7453,2603 7321,2603 7191,2568 7077,2502 6963,2437 6868,2342 6803,2228 6737,2114 6702,1984 6702,1853 6702,1721 6737,1591 6803,1477 6868,1363 6963,1268 7077,1203 7191,1137 7321,1102 7453,1102 7584,1102 7714,1137 7828,1203 7942,1268 8037,1363 8102,1477 8168,1591 8203,1721 8203,1852 L 8203,1853 Z"/>
       </g>
      </g>
      <g class="com.sun.star.drawing.CustomShape">
       <g id="id4">
        <rect class="BoundingBox" stroke="none" fill="none" x="3348" y="48" width="1608" height="1609"/>
        <path fill="rgb(221,221,221)" fill-opacity="0.839" stroke="rgb(255,255,255)" stroke-opacity="0.839" d="M 4902,852 C 4902,983 4867,1113 4801,1227 4736,1341 4641,1436 4527,1501 4413,1567 4283,1602 4152,1602 4020,1602 3890,1567 3776,1501 3662,1436 3567,1341 3502,1227 3436,1113 3401,983 3401,852 3401,720 3436,590 3502,476 3567,362 3662,267 3776,202 3890,136 4020,101 4151,101 4283,101 4413,136 4527,202 4641,267 4736,362 4801,476 4867,590 4902,720 4902,851 L 4902,852 Z"/>
        <path fill="none" stroke="rgb(51,51,51)" stroke-width="106" stroke-linejoin="round" d="M 4902,852 C 4902,983 4867,1113 4801,1227 4736,1341 4641,1436 4527,1501 4413,1567 4283,1602 4152,1602 4020,1602 3890,1567 3776,1501 3662,1436 3567,1341 3502,1227 3436,1113 3401,983 3401,852 3401,720 3436,590 3502,476 3567,362 3662,267 3776,202 3890,136 4020,101 4151,101 4283,101 4413,136 4527,202 4641,267 4736,362 4801,476 4867,590 4902,720 4902,851 L 4902,852 Z"/>
       </g>
      </g>
      <g class="com.sun.star.drawing.ConnectorShape">
       <g id="id5">
        <rect class="BoundingBox" stroke="none" fill="none" x="8122" y="973" width="1962" height="960"/>
        <path fill="none" stroke="rgb(51,51,51)" stroke-width="159" stroke-linejoin="round" d="M 8202,1852 L 10003,1053"/>
       </g>
      </g>
      <g class="com.sun.star.drawing.ConnectorShape">
       <g id="id6">
        <rect class="BoundingBox" stroke="none" fill="none" x="4821" y="771" width="1962" height="1162"/>
        <path fill="none" stroke="rgb(51,51,51)" stroke-width="159" stroke-linejoin="round" d="M 4901,851 L 6702,1852"/>
       </g>
      </g>
      <g class="com.sun.star.drawing.ConnectorShape">
       <g id="id7">
        <rect class="BoundingBox" stroke="none" fill="none" x="1520" y="771" width="1962" height="1460"/>
        <path fill="none" stroke="rgb(51,51,51)" stroke-width="159" stroke-linejoin="round" d="M 1600,2150 L 3401,851"/>
       </g>
      </g>
      <g class="com.sun.star.drawing.CustomShape">
       <g id="id8">
        <rect class="BoundingBox" stroke="none" fill="none" x="9950" y="250" width="1608" height="1608"/>
        <path fill="rgb(221,221,221)" stroke="none" d="M 11504,1054 C 11504,1185 11469,1315 11403,1429 11338,1543 11243,1638 11129,1703 11015,1769 10885,1804 10754,1804 10622,1804 10492,1769 10378,1703 10264,1638 10169,1543 10104,1429 10038,1315 10003,1185 10003,1054 10003,922 10038,792 10104,678 10169,564 10264,469 10378,404 10492,338 10622,303 10754,303 10885,303 11015,338 11129,404 11243,469 11338,564 11403,678 11469,792 11504,922 11504,1053 L 11504,1054 Z"/>
        <path fill="none" stroke="rgb(51,51,51)" stroke-width="106" stroke-linejoin="round" d="M 11504,1054 C 11504,1185 11469,1315 11403,1429 11338,1543 11243,1638 11129,1703 11015,1769 10885,1804 10754,1804 10622,1804 10492,1769 10378,1703 10264,1638 10169,1543 10104,1429 10038,1315 10003,1185 10003,1054 10003,922 10038,792 10104,678 10169,564 10264,469 10378,404 10492,338 10622,303 10754,303 10885,303 11015,338 11129,404 11243,469 11338,564 11403,678 11469,792 11504,922 11504,1053 L 11504,1054 Z"/>
       </g>
      </g>
      <g class="com.sun.star.drawing.CustomShape">
       <g id="id9">
        <rect class="BoundingBox" stroke="none" fill="none" x="47" y="1347" width="1608" height="1608"/>
        <path fill="rgb(221,221,221)" stroke="none" d="M 1601,2151 C 1601,2282 1566,2412 1500,2526 1435,2640 1340,2735 1226,2800 1112,2866 982,2901 851,2901 719,2901 589,2866 475,2800 361,2735 266,2640 201,2526 135,2412 100,2282 100,2151 100,2019 135,1889 201,1775 266,1661 361,1566 475,1501 589,1435 719,1400 850,1400 982,1400 1112,1435 1226,1501 1340,1566 1435,1661 1500,1775 1566,1889 1601,2019 1601,2150 L 1601,2151 Z"/>
        <path fill="none" stroke="rgb(51,51,51)" stroke-width="106" stroke-linejoin="round" d="M 1601,2151 C 1601,2282 1566,2412 1500,2526 1435,2640 1340,2735 1226,2800 1112,2866 982,2901 851,2901 719,2901 589,2866 475,2800 361,2735 266,2640 201,2526 135,2412 100,2282 100,2151 100,2019 135,1889 201,1775 266,1661 361,1566 475,1501 589,1435 719,1400 850,1400 982,1400 1112,1435 1226,1501 1340,1566 1435,1661 1500,1775 1566,1889 1601,2019 1601,2150 L 1601,2151 Z"/>
       </g>
      </g>
      <g class="com.sun.star.drawing.CustomShape">
       <g id="id10">
        <rect class="BoundingBox" stroke="none" fill="none" x="199" y="1499" width="1304" height="1304"/>
        <path fill="rgb(255,255,109)" stroke="none" d="M 200,2150 L 464,2244 464,2056 200,2150 Z"/>
        <path fill="none" stroke="rgb(232,162,2)" d="M 200,2150 L 464,2244 464,2056 200,2150 Z"/>
        <path fill="rgb(255,255,109)" stroke="none" d="M 390,2610 L 643,2490 510,2357 390,2610 Z"/>
        <path fill="none" stroke="rgb(232,162,2)" d="M 390,2610 L 643,2490 510,2357 390,2610 Z"/>
        <path fill="rgb(255,255,109)" stroke="none" d="M 850,2801 L 944,2536 756,2536 850,2801 Z"/>
        <path fill="none" stroke="rgb(232,162,2)" d="M 850,2801 L 944,2536 756,2536 850,2801 Z"/>
        <path fill="rgb(255,255,109)" stroke="none" d="M 1310,2610 L 1190,2357 1057,2490 1310,2610 Z"/>
        <path fill="none" stroke="rgb(232,162,2)" d="M 1310,2610 L 1190,2357 1057,2490 1310,2610 Z"/>
        <path fill="rgb(255,255,109)" stroke="none" d="M 1501,2150 L 1236,2056 1236,2244 1501,2150 Z"/>
        <path fill="none" stroke="rgb(232,162,2)" d="M 1501,2150 L 1236,2056 1236,2244 1501,2150 Z"/>
        <path fill="rgb(255,255,109)" stroke="none" d="M 1310,1690 L 1057,1810 1190,1943 1310,1690 Z"/>
        <path fill="none" stroke="rgb(232,162,2)" d="M 1310,1690 L 1057,1810 1190,1943 1310,1690 Z"/>
        <path fill="rgb(255,255,109)" stroke="none" d="M 850,1500 L 756,1764 944,1764 850,1500 Z"/>
        <path fill="none" stroke="rgb(232,162,2)" d="M 850,1500 L 756,1764 944,1764 850,1500 Z"/>
        <path fill="rgb(255,255,109)" stroke="none" d="M 390,1690 L 510,1943 643,1810 390,1690 Z"/>
        <path fill="none" stroke="rgb(232,162,2)" d="M 390,1690 L 510,1943 643,1810 390,1690 Z"/>
        <path fill="rgb(255,255,109)" stroke="none" d="M 1176,2151 C 1176,2208 1161,2264 1132,2313 1104,2363 1063,2404 1013,2432 964,2461 908,2476 851,2476 793,2476 737,2461 688,2432 638,2404 597,2363 569,2313 540,2264 525,2208 525,2151 525,2093 540,2037 569,1988 597,1938 638,1897 688,1869 737,1840 793,1825 850,1825 908,1825 964,1840 1013,1869 1063,1897 1104,1938 1132,1988 1161,2037 1176,2093 1176,2150 L 1176,2151 Z"/>
        <path fill="none" stroke="rgb(232,162,2)" d="M 1176,2151 C 1176,2208 1161,2264 1132,2313 1104,2363 1063,2404 1013,2432 964,2461 908,2476 851,2476 793,2476 737,2461 688,2432 638,2404 597,2363 569,2313 540,2264 525,2208 525,2151 525,2093 540,2037 569,1988 597,1938 638,1897 688,1869 737,1840 793,1825 850,1825 908,1825 964,1840 1013,1869 1063,1897 1104,1938 1132,1988 1161,2037 1176,2093 1176,2150 L 1176,2151 Z"/>
       </g>
      </g>
      <g class="com.sun.star.drawing.CustomShape">
       <g id="id11">
        <rect class="BoundingBox" stroke="none" fill="none" x="6800" y="1200" width="1304" height="1304"/>
        <path fill="rgb(255,255,109)" stroke="none" d="M 6801,1851 L 7065,1945 7065,1757 6801,1851 Z"/>
        <path fill="none" stroke="rgb(232,162,2)" d="M 6801,1851 L 7065,1945 7065,1757 6801,1851 Z"/>
        <path fill="rgb(255,255,109)" stroke="none" d="M 6991,2311 L 7244,2191 7111,2058 6991,2311 Z"/>
        <path fill="none" stroke="rgb(232,162,2)" d="M 6991,2311 L 7244,2191 7111,2058 6991,2311 Z"/>
        <path fill="rgb(255,255,109)" stroke="none" d="M 7451,2502 L 7545,2237 7357,2237 7451,2502 Z"/>
        <path fill="none" stroke="rgb(232,162,2)" d="M 7451,2502 L 7545,2237 7357,2237 7451,2502 Z"/>
        <path fill="rgb(255,255,109)" stroke="none" d="M 7911,2311 L 7791,2058 7658,2191 7911,2311 Z"/>
        <path fill="none" stroke="rgb(232,162,2)" d="M 7911,2311 L 7791,2058 7658,2191 7911,2311 Z"/>
        <path fill="rgb(255,255,109)" stroke="none" d="M 8102,1851 L 7837,1757 7837,1945 8102,1851 Z"/>
        <path fill="none" stroke="rgb(232,162,2)" d="M 8102,1851 L 7837,1757 7837,1945 8102,1851 Z"/>
        <path fill="rgb(255,255,109)" stroke="none" d="M 7911,1391 L 7658,1511 7791,1644 7911,1391 Z"/>
        <path fill="none" stroke="rgb(232,162,2)" d="M 7911,1391 L 7658,1511 7791,1644 7911,1391 Z"/>
        <path fill="rgb(255,255,109)" stroke="none" d="M 7451,1201 L 7357,1465 7545,1465 7451,1201 Z"/>
        <path fill="none" stroke="rgb(232,162,2)" d="M 7451,1201 L 7357,1465 7545,1465 7451,1201 Z"/>
        <path fill="rgb(255,255,109)" stroke="none" d="M 6991,1391 L 7111,1644 7244,1511 6991,1391 Z"/>
        <path fill="none" stroke="rgb(232,162,2)" d="M 6991,1391 L 7111,1644 7244,1511 6991,1391 Z"/>
        <path fill="rgb(255,255,109)" stroke="none" d="M 7777,1852 C 7777,1909 7762,1965 7733,2014 7705,2064 7664,2105 7614,2133 7565,2162 7509,2177 7452,2177 7394,2177 7338,2162 7289,2133 7239,2105 7198,2064 7170,2014 7141,1965 7126,1909 7126,1852 7126,1794 7141,1738 7170,1689 7198,1639 7239,1598 7289,1570 7338,1541 7394,1526 7452,1526 7509,1526 7565,1541 7614,1570 7664,1598 7705,1639 7733,1689 7762,1738 7777,1794 7777,1851 L 7777,1852 Z"/>
        <path fill="none" stroke="rgb(232,162,2)" d="M 7777,1852 C 7777,1909 7762,1965 7733,2014 7705,2064 7664,2105 7614,2133 7565,2162 7509,2177 7452,2177 7394,2177 7338,2162 7289,2133 7239,2105 7198,2064 7170,2014 7141,1965 7126,1909 7126,1852 7126,1794 7141,1738 7170,1689 7198,1639 7239,1598 7289,1570 7338,1541 7394,1526 7452,1526 7509,1526 7565,1541 7614,1570 7664,1598 7705,1639 7733,1689 7762,1738 7777,1794 7777,1851 L 7777,1852 Z"/>
       </g>
      </g>
      <g class="com.sun.star.drawing.CustomShape">
       <g id="id12">
        <rect class="BoundingBox" stroke="none" fill="none" x="3500" y="200" width="1304" height="1304"/>
        <path fill="rgb(204,204,204)" stroke="none" d="M 3501,851 L 3765,945 3765,757 3501,851 Z"/>
        <path fill="none" stroke="rgb(128,128,128)" d="M 3501,851 L 3765,945 3765,757 3501,851 Z"/>
        <path fill="rgb(204,204,204)" stroke="none" d="M 3691,1311 L 3944,1191 3811,1058 3691,1311 Z"/>
        <path fill="none" stroke="rgb(128,128,128)" d="M 3691,1311 L 3944,1191 3811,1058 3691,1311 Z"/>
        <path fill="rgb(204,204,204)" stroke="none" d="M 4151,1502 L 4245,1237 4057,1237 4151,1502 Z"/>
        <path fill="none" stroke="rgb(128,128,128)" d="M 4151,1502 L 4245,1237 4057,1237 4151,1502 Z"/>
        <path fill="rgb(204,204,204)" stroke="none" d="M 4611,1311 L 4491,1058 4358,1191 4611,1311 Z"/>
        <path fill="none" stroke="rgb(128,128,128)" d="M 4611,1311 L 4491,1058 4358,1191 4611,1311 Z"/>
        <path fill="rgb(204,204,204)" stroke="none" d="M 4802,851 L 4537,757 4537,945 4802,851 Z"/>
        <path fill="none" stroke="rgb(128,128,128)" d="M 4802,851 L 4537,757 4537,945 4802,851 Z"/>
        <path fill="rgb(204,204,204)" stroke="none" d="M 4611,391 L 4358,511 4491,644 4611,391 Z"/>
        <path fill="none" stroke="rgb(128,128,128)" d="M 4611,391 L 4358,511 4491,644 4611,391 Z"/>
        <path fill="rgb(204,204,204)" stroke="none" d="M 4151,201 L 4057,465 4245,465 4151,201 Z"/>
        <path fill="none" stroke="rgb(128,128,128)" d="M 4151,201 L 4057,465 4245,465 4151,201 Z"/>
        <path fill="rgb(204,204,204)" stroke="none" d="M 3691,391 L 3811,644 3944,511 3691,391 Z"/>
        <path fill="none" stroke="rgb(128,128,128)" d="M 3691,391 L 3811,644 3944,511 3691,391 Z"/>
        <path fill="rgb(204,204,204)" stroke="none" d="M 4477,852 C 4477,909 4462,965 4433,1014 4405,1064 4364,1105 4314,1133 4265,1162 4209,1177 4152,1177 4094,1177 4038,1162 3989,1133 3939,1105 3898,1064 3870,1014 3841,965 3826,909 3826,852 3826,794 3841,738 3870,689 3898,639 3939,598 3989,570 4038,541 4094,526 4152,526 4209,526 4265,541 4314,570 4364,598 4405,639 4433,689 4462,738 4477,794 4477,851 L 4477,852 Z"/>
        <path fill="none" stroke="rgb(128,128,128)" d="M 4477,852 C 4477,909 4462,965 4433,1014 4405,1064 4364,1105 4314,1133 4265,1162 4209,1177 4152,1177 4094,1177 4038,1162 3989,1133 3939,1105 3898,1064 3870,1014 3841,965 3826,909 3826,852 3826,794 3841,738 3870,689 3898,639 3939,598 3989,570 4038,541 4094,526 4152,526 4209,526 4265,541 4314,570 4364,598 4405,639 4433,689 4462,738 4477,794 4477,851 L 4477,852 Z"/>
       </g>
      </g>
      <g class="com.sun.star.drawing.CustomShape">
       <g id="id13">
        <rect class="BoundingBox" stroke="none" fill="none" x="10101" y="401" width="1304" height="1304"/>
        <path fill="rgb(204,204,204)" stroke="none" d="M 10102,1052 L 10366,1146 10366,958 10102,1052 Z"/>
        <path fill="none" stroke="rgb(128,128,128)" d="M 10102,1052 L 10366,1146 10366,958 10102,1052 Z"/>
        <path fill="rgb(204,204,204)" stroke="none" d="M 10292,1512 L 10545,1392 10412,1259 10292,1512 Z"/>
        <path fill="none" stroke="rgb(128,128,128)" d="M 10292,1512 L 10545,1392 10412,1259 10292,1512 Z"/>
        <path fill="rgb(204,204,204)" stroke="none" d="M 10752,1703 L 10846,1438 10658,1438 10752,1703 Z"/>
        <path fill="none" stroke="rgb(128,128,128)" d="M 10752,1703 L 10846,1438 10658,1438 10752,1703 Z"/>
        <path fill="rgb(204,204,204)" stroke="none" d="M 11212,1512 L 11092,1259 10959,1392 11212,1512 Z"/>
        <path fill="none" stroke="rgb(128,128,128)" d="M 11212,1512 L 11092,1259 10959,1392 11212,1512 Z"/>
        <path fill="rgb(204,204,204)" stroke="none" d="M 11403,1052 L 11138,958 11138,1146 11403,1052 Z"/>
        <path fill="none" stroke="rgb(128,128,128)" d="M 11403,1052 L 11138,958 11138,1146 11403,1052 Z"/>
        <path fill="rgb(204,204,204)" stroke="none" d="M 11212,592 L 10959,712 11092,845 11212,592 Z"/>
        <path fill="none" stroke="rgb(128,128,128)" d="M 11212,592 L 10959,712 11092,845 11212,592 Z"/>
        <path fill="rgb(204,204,204)" stroke="none" d="M 10752,402 L 10658,666 10846,666 10752,402 Z"/>
        <path fill="none" stroke="rgb(128,128,128)" d="M 10752,402 L 10658,666 10846,666 10752,402 Z"/>
        <path fill="rgb(204,204,204)" stroke="none" d="M 10292,592 L 10412,845 10545,712 10292,592 Z"/>
        <path fill="none" stroke="rgb(128,128,128)" d="M 10292,592 L 10412,845 10545,712 10292,592 Z"/>
        <path fill="rgb(204,204,204)" stroke="none" d="M 11078,1053 C 11078,1110 11063,1166 11034,1215 11006,1265 10965,1306 10915,1334 10866,1363 10810,1378 10753,1378 10695,1378 10639,1363 10590,1334 10540,1306 10499,1265 10471,1215 10442,1166 10427,1110 10427,1053 10427,995 10442,939 10471,890 10499,840 10540,799 10590,771 10639,742 10695,727 10753,727 10810,727 10866,742 10915,771 10965,799 11006,840 11034,890 11063,939 11078,995 11078,1052 L 11078,1053 Z"/>
        <path fill="none" stroke="rgb(128,128,128)" d="M 11078,1053 C 11078,1110 11063,1166 11034,1215 11006,1265 10965,1306 10915,1334 10866,1363 10810,1378 10753,1378 10695,1378 10639,1363 10590,1334 10540,1306 10499,1265 10471,1215 10442,1166 10427,1110 10427,1053 10427,995 10442,939 10471,890 10499,840 10540,799 10590,771 10639,742 10695,727 10753,727 10810,727 10866,742 10915,771 10965,799 11006,840 11034,890 11063,939 11078,995 11078,1052 L 11078,1053 Z"/>
       </g>
      </g>
     </g>
    </g>
   </g>
  </g>
 </g>
</svg>